<?xml version="1.0" encoding="UTF-8" standalone="no"?>
<svg width="71" height="55" viewBox="0 0 71 55" fill="none" xmlns="http://www.w3.org/2000/svg">
<path d="M59.6972 4.56879C55.1354 2.43442 50.2577 0.88325 45.1581 0C44.5318 1.1323 43.8002 2.65526 43.2957 3.86677C37.8748 3.05153 32.5037 3.05153 27.1824 3.86677C26.6781 2.65526 25.9298 1.1323 25.2979 0C20.1928 0.88325 15.3095 2.44012 10.7477 4.58009C1.54642 18.4844 -0.947893 32.0434 0.299265 45.4098C6.40202 49.9672 12.3163 52.7356 18.1308 54.5473C19.5665 52.5714 20.8469 50.4711 21.9499 48.2575C19.8491 47.4592 17.8371 46.4742 15.9359 45.3306C16.4403 44.9569 16.9336 44.5662 17.4103 44.1643C29.006 49.5879 41.6051 49.5879 53.0624 44.1643C53.5446 44.5662 54.0379 44.9569 54.5367 45.3306C52.63 46.4798 50.6124 47.4648 48.5116 48.2632C49.6147 50.4711 50.8895 52.5771 52.3307 54.5529C58.1508 52.7412 64.0706 49.9729 70.1733 45.4098C71.6367 29.9147 67.6735 16.4803 59.6972 4.56879ZM23.5296 37.1895C20.0487 37.1895 17.1941 33.9399 17.1941 29.9826C17.1941 26.0253 19.9878 22.77 23.5296 22.77C27.0716 22.77 29.9262 26.0196 29.8652 29.9826C29.8707 33.9399 27.0716 37.1895 23.5296 37.1895ZM46.943 37.1895C43.462 37.1895 40.6074 33.9399 40.6074 29.9826C40.6074 26.0253 43.401 22.77 46.943 22.77C50.4849 22.77 53.3395 26.0196 53.2786 29.9826C53.2786 33.9399 50.4849 37.1895 46.943 37.1895Z" fill="white"/>
</svg>
