<?xml version="1.0" encoding="UTF-8" standalone="no"?>
<svg width="72" height="60" viewBox="0 0 72 60" fill="none" xmlns="http://www.w3.org/2000/svg">
<path d="M26.7191 55.9474C24.6003 55.9474 24.9606 55.1447 24.2298 53.1204L18 32.5476L65.955 4" fill="#C8DAEA"/>
<path d="M27 55.7287C28.6348 55.7287 29.3569 54.9785 30.2697 54.0883L38.9887 45.5809L28.1128 39" fill="#A9C9DD"/>
<path d="M27.8582 39.4965L54.2116 59.0336C57.2192 60.6987 59.3891 59.8364 60.1384 56.2323L70.8656 5.50808C71.9637 1.08981 69.1872 -0.914812 66.3099 0.395904L3.31997 24.768C-0.979623 26.4987 -0.954011 28.9058 2.53635 29.9781L18.701 35.041L56.1238 11.3503C57.8905 10.2752 59.5123 10.8527 58.1815 12.0381" fill="url(#paint0_linear_741_852)"/>
<defs>
<linearGradient id="paint0_linear_741_852" x1="46.9333" y1="26.1539" x2="57.1976" y2="49.46" gradientUnits="userSpaceOnUse">
<stop stop-color="#EFF7FC"/>
<stop offset="1" stop-color="white"/>
</linearGradient>
</defs>
</svg>
