<?xml version="1.0" encoding="UTF-8" standalone="no"?>
<svg width="26" height="28" viewBox="0 0 26 28" fill="none" xmlns="http://www.w3.org/2000/svg">
<path fill-rule="evenodd" clip-rule="evenodd" d="M7.44357 4.21794C11.224 -0.791065 17.0851 -1.21244 21.7197 2.28368C26.3317 5.76282 27.5349 11.5133 23.7545 16.5222C21.4886 19.5245 18.7793 20.7432 15.9319 20.4288C15.8392 21.8434 15.1243 23.3408 14.0168 24.8081C11.8912 27.6245 9.2972 28.9107 7.14498 27.2872C5.37649 25.9531 6.01128 24.4182 6.89308 22.7296L6.22573 22.2261C4.89348 23.575 3.549 24.8361 1.46349 23.2629C-0.855507 21.5135 -0.204506 18.5 1.92113 15.6836C3.09961 14.1221 4.46641 12.934 6.00142 12.5212C4.96562 9.93437 5.27782 7.0875 7.44357 4.21794ZM18.7109 16.0075C20.1535 15.8864 22.1734 15.0836 21.607 14.3991C21.2397 13.9552 19.7749 13.3742 18.1366 12.7243C17.2489 12.3722 16.3103 12 15.4678 11.6183C14.6253 11.2367 13.7082 10.7545 12.8409 10.2985L12.8408 10.2985C11.2399 9.45675 9.80857 8.70421 9.32854 8.83754C8.58843 9.04315 9.16858 10.9109 10.0287 12.0749C10.8888 13.2391 12.2867 14.3074 13.915 15.0449C15.5432 15.7824 17.2684 16.1287 18.7109 16.0075ZM11.8013 5.85039C10.916 5.47347 10.2858 6.00893 10.0878 6.307C10.0106 6.42306 9.85404 6.45462 9.73795 6.3776C9.62186 6.3005 9.59022 6.14387 9.66733 6.0278C9.94124 5.61551 10.8049 4.87779 11.999 5.38613C12.7723 5.7153 13.0953 6.25175 13.2131 6.71616C13.2707 6.94324 13.2782 7.14794 13.2716 7.29594C13.2683 7.37029 13.2613 7.43126 13.2549 7.47489C13.2518 7.49666 13.2487 7.51424 13.2463 7.52707C13.245 7.53349 13.244 7.53869 13.2431 7.54266C13.2428 7.54472 13.2424 7.5464 13.2421 7.5477L13.2417 7.54954L13.2415 7.55061C13.2415 7.55061 13.2414 7.55084 12.9954 7.49475L13.2414 7.55084C13.2104 7.68669 13.0751 7.77165 12.9392 7.74071C12.8037 7.70976 12.7187 7.57513 12.7491 7.43959V7.43936C12.7494 7.43844 12.7497 7.43638 12.7503 7.43324C12.7516 7.4269 12.7534 7.41628 12.7555 7.40184C12.7598 7.37281 12.7649 7.3288 12.7674 7.2734C12.7724 7.16192 12.7665 7.00834 12.7239 6.84017C12.6412 6.51414 12.4166 6.11231 11.8013 5.85039ZM20.308 10.5877C20.5397 10.315 21.2284 9.8572 22.0633 10.3354C22.6436 10.6677 22.8194 11.0932 22.8633 11.4266C22.8858 11.5987 22.8737 11.7518 22.8557 11.862C22.8466 11.9167 22.8364 11.9599 22.8288 11.9881C22.825 12.0023 22.8219 12.0126 22.82 12.0187C22.8193 12.0209 22.8187 12.0225 22.8184 12.0236L22.818 12.0247L22.8179 12.0249C22.7719 12.1558 22.8404 12.2996 22.9714 12.3462C23.1027 12.3929 23.247 12.3244 23.2937 12.1931L23.056 12.1085C23.2937 12.1931 23.2938 12.1929 23.2938 12.1929L23.294 12.1926L23.2942 12.1919L23.2948 12.1901L23.2958 12.1871L23.2965 12.1853C23.2978 12.1814 23.2994 12.1763 23.3014 12.1701C23.3053 12.1577 23.3104 12.1406 23.3161 12.1192C23.3276 12.0767 23.3416 12.0169 23.3537 11.9436C23.3776 11.7973 23.3942 11.5932 23.3637 11.3609C23.3013 10.8859 23.0435 10.3153 22.3142 9.89754C21.1881 9.25251 20.2437 9.88379 19.9233 10.2611C19.8331 10.3673 19.8461 10.5265 19.9523 10.6167C20.0586 10.7068 20.2178 10.6939 20.308 10.5877Z" fill="url(#paint0_linear_329_2859)"/>
<defs>
<linearGradient id="paint0_linear_329_2859" x1="7.21002" y1="1.6579" x2="29.0152" y2="22.4229" gradientUnits="userSpaceOnUse">
<stop stop-color="white"/>
<stop offset="1" stop-color="white"/>
</linearGradient>
</defs>
</svg>
