<?xml version="1.0" encoding="UTF-8" standalone="no"?>
<svg width="77" height="62" viewBox="0 0 77 62" fill="none" xmlns="http://www.w3.org/2000/svg">
<path d="M24.0214 61.3433C52.8465 61.3433 68.6098 37.7452 68.6098 17.2818C68.6098 16.6115 68.596 15.9443 68.5656 15.2801C71.6255 13.0942 74.285 10.3663 76.3827 7.26107C73.5748 8.49441 70.5531 9.32468 67.3832 9.69906C70.6187 7.78187 73.1026 4.7491 74.2745 1.13371C71.2466 2.90749 67.8935 4.19669 64.3233 4.89272C61.4636 1.88267 57.3923 0 52.8843 0C44.2301 0 37.2122 6.93521 37.2122 15.4838C37.2122 16.6991 37.3497 17.8811 37.6186 19.0149C24.594 18.3673 13.0447 12.2051 5.31533 2.83502C3.96947 5.12355 3.19343 7.78194 3.19343 10.6185C3.19343 15.9912 5.96009 20.7342 10.1672 23.5089C7.59614 23.4304 5.18089 22.733 3.06989 21.5721C3.06758 21.6371 3.06757 21.7004 3.06757 21.7699C3.06757 29.2696 8.4694 35.5314 15.64 36.9503C14.3232 37.305 12.9377 37.4952 11.5077 37.4952C10.4995 37.4952 9.5172 37.3972 8.56243 37.216C10.5575 43.369 16.3428 47.8466 23.2018 47.9717C17.8382 52.1261 11.0815 54.6004 3.7381 54.6004C2.47472 54.6004 1.22664 54.5294 0 54.3861C6.9356 58.7791 15.171 61.3423 24.0223 61.3423" fill="white"/>
</svg>
